
<svg xmlns="http://www.w3.org/2000/svg" width="169" height="59" viewBox="0 0 169 59" fill="none"><g clip-path="url(#clip0_412_113)"><path d="M0 15.0538V59L25.5334 44.4188L51.0668 59V44.5538L38.2325 36.5881L51.0668 29.2975V15.0538L25.5334 0L0 15.0538Z" fill="url(#paint0_linear_412_113)"></path><path d="M12.9692 21.7368V36.5881L25.6008 44.3512V29.4325L12.9692 21.7368Z" fill="#A133FF"></path><path d="M38.2324 21.7368V36.5881L25.6008 44.3512V29.4325L38.2324 21.7368Z" fill="#5500A4"></path><path d="M25.6008 29.4326L12.9692 21.7369L25.6008 14.4463L38.2324 21.7369L25.6008 29.4326Z" fill="#B268FF"></path><path d="M69.2373 40.976V17.6865H77.9511C79.7749 17.6865 81.261 18.0241 82.4768 18.6316C83.6927 19.2392 84.6384 20.1167 85.2463 21.2643C85.8543 22.4119 86.192 23.6945 86.192 25.1797C86.192 26.6648 85.8543 27.9474 85.2463 29.095C84.6384 30.1751 83.6927 31.0527 82.4768 31.6602C81.261 32.2678 79.7073 32.4703 77.9511 32.4703H71.7366V28.96H77.4107C78.4915 28.96 79.3021 28.825 79.9775 28.5549C80.653 28.2849 81.1259 27.8124 81.4636 27.2723C81.8014 26.7323 81.9365 25.9897 81.9365 25.1797C81.9365 24.3696 81.8014 23.627 81.4636 23.087C81.1259 22.4794 80.653 22.0744 79.9775 21.7369C79.3021 21.3993 78.4239 21.2643 77.4107 21.2643H73.5604V41.0435H69.2373V40.976V40.976ZM81.3285 30.4451L87.0701 40.976H82.3417L76.6677 30.4451H81.3285Z" fill="white"></path><path d="M96.1216 41.3136C94.3653 41.3136 92.8792 40.976 91.5958 40.2335C90.3124 39.4909 89.3667 38.4783 88.6912 37.1282C88.0157 35.7781 87.678 34.2255 87.678 32.3353C87.678 30.4452 88.0157 28.96 88.6912 27.6099C89.3667 26.2598 90.3124 25.1797 91.5958 24.4371C92.8792 23.6946 94.2977 23.2896 95.9865 23.2896C97.0672 23.2896 98.0805 23.4921 99.0262 23.8296C99.9718 24.1671 100.85 24.7072 101.593 25.4497C102.336 26.1923 102.944 27.0699 103.349 28.2175C103.755 29.2976 103.957 30.6477 103.957 32.2003V33.4829H89.6369V30.7152H99.9718C99.9718 29.9051 99.7692 29.2301 99.4314 28.6225C99.0937 28.015 98.6209 27.5424 98.0129 27.1374C97.405 26.7323 96.7295 26.5973 95.9189 26.5973C95.1083 26.5973 94.3653 26.7998 93.6898 27.2049C93.0819 27.6099 92.5415 28.15 92.2037 28.825C91.866 29.5001 91.6633 30.1751 91.6633 30.9852V33.4154C91.6633 34.428 91.866 35.3056 92.2037 36.0481C92.609 36.7907 93.0819 37.3307 93.7574 37.7358C94.4328 38.1408 95.1759 38.3433 96.1216 38.3433C96.7295 38.3433 97.2699 38.2758 97.7427 38.0733C98.2156 37.8708 98.6209 37.6683 99.0262 37.3307C99.3639 36.9932 99.6341 36.5882 99.8367 36.1156L103.687 36.5207C103.417 37.5333 103.012 38.4108 102.336 39.1534C101.661 39.896 100.782 40.5035 99.7016 40.9085C98.6884 41.1111 97.4725 41.3136 96.1216 41.3136V41.3136Z" fill="white"></path><path d="M113.212 41.3135C111.861 41.3135 110.577 40.976 109.496 40.2334C108.416 39.5584 107.538 38.4783 106.93 37.1957C106.322 35.8456 105.984 34.2254 105.984 32.3353C105.984 30.4451 106.322 28.7575 106.93 27.4073C107.538 26.0572 108.416 25.0446 109.564 24.3696C110.645 23.6945 111.861 23.357 113.212 23.357C114.225 23.357 115.103 23.5595 115.711 23.8971C116.386 24.2346 116.927 24.6396 117.265 25.1122C117.67 25.5847 117.94 26.0572 118.143 26.4623H118.345V17.6865H122.466V40.976H118.413V38.2083H118.21C118.008 38.6133 117.67 39.0858 117.265 39.5584C116.859 40.0309 116.319 40.436 115.643 40.7735C115.035 41.111 114.225 41.3135 113.212 41.3135V41.3135ZM114.36 37.9382C115.238 37.9382 115.981 37.6682 116.589 37.1957C117.197 36.7231 117.67 36.0481 118.008 35.238C118.345 34.3604 118.48 33.4154 118.48 32.2678C118.48 31.1202 118.345 30.1751 118.008 29.2975C117.67 28.4874 117.197 27.8124 116.589 27.3398C115.981 26.8673 115.238 26.6648 114.36 26.6648C113.414 26.6648 112.671 26.9348 112.063 27.4073C111.455 27.8799 110.982 28.5549 110.645 29.365C110.307 30.1751 110.172 31.1877 110.172 32.2678C110.172 33.3479 110.307 34.3604 110.645 35.1705C110.982 36.0481 111.455 36.7231 112.063 37.1957C112.739 37.6682 113.482 37.9382 114.36 37.9382Z" fill="white"></path><path d="M136.786 33.6178V23.4919H140.906V40.9759H136.921V37.8707H136.718C136.313 38.8157 135.705 39.6258 134.759 40.3009C133.881 40.9084 132.733 41.2459 131.45 41.2459C130.301 41.2459 129.288 40.9759 128.41 40.5034C127.532 40.0308 126.856 39.2208 126.383 38.2757C125.911 37.2631 125.64 36.1155 125.64 34.6979V23.5595H129.761V34.0228C129.761 35.1029 130.031 35.9805 130.639 36.6556C131.247 37.3306 132.057 37.6006 133.003 37.6006C133.611 37.6006 134.219 37.4656 134.759 37.1281C135.3 36.8581 135.773 36.3855 136.178 35.778C136.583 35.1704 136.786 34.5629 136.786 33.6178V33.6178Z" fill="white"></path><path d="M147.864 23.5596L151.376 30.0401L154.957 23.5596H159.347L154.078 32.2678L159.415 40.976H155.092L151.376 34.698L147.729 40.976H143.338L148.674 32.2678L143.473 23.5596H147.864V23.5596Z" fill="white"></path><path d="M166.028 29.5001C165.616 29.5001 165.231 29.4258 164.873 29.2706C164.515 29.1153 164.197 28.906 163.927 28.6292C163.657 28.3525 163.441 28.0419 163.285 27.6842C163.13 27.3264 163.056 26.9416 163.056 26.5298C163.056 26.118 163.13 25.7333 163.285 25.3755C163.441 25.0177 163.65 24.7004 163.927 24.4304C164.204 24.1604 164.515 23.9444 164.873 23.7891C165.231 23.6338 165.616 23.5596 166.028 23.5596C166.44 23.5596 166.825 23.6338 167.183 23.7891C167.541 23.9444 167.858 24.1536 168.129 24.4304C168.399 24.7072 168.615 25.0177 168.77 25.3755C168.926 25.7333 169 26.118 169 26.5298C169 26.9416 168.926 27.3264 168.77 27.6842C168.615 28.0419 168.406 28.3592 168.129 28.6292C167.852 28.8993 167.541 29.1153 167.183 29.2706C166.825 29.4258 166.44 29.5001 166.028 29.5001ZM166.028 29.1018C166.501 29.1018 166.933 28.987 167.325 28.7575C167.717 28.528 168.027 28.2175 168.257 27.8259C168.487 27.4344 168.601 27.0024 168.601 26.5298C168.601 26.0573 168.487 25.6252 168.257 25.2337C168.027 24.8422 167.717 24.5384 167.325 24.3021C166.933 24.0726 166.501 23.9579 166.028 23.9579C165.555 23.9579 165.123 24.0726 164.731 24.3021C164.339 24.5317 164.028 24.8422 163.799 25.2337C163.569 25.6252 163.454 26.0573 163.454 26.5298C163.454 27.0024 163.569 27.4344 163.799 27.8259C164.028 28.2175 164.339 28.528 164.731 28.7575C165.123 28.987 165.555 29.1018 166.028 29.1018ZM165.048 27.8664V25.1257H166.298C166.46 25.1257 166.602 25.1595 166.737 25.227C166.865 25.2945 166.973 25.389 167.048 25.5172C167.122 25.6455 167.163 25.7873 167.163 25.9628C167.163 26.1383 167.122 26.2868 167.048 26.4151C166.973 26.5433 166.865 26.6446 166.73 26.7188C166.595 26.7931 166.447 26.8268 166.284 26.8268H165.251V26.5163H166.217C166.386 26.5163 166.521 26.4691 166.629 26.3678C166.73 26.2665 166.784 26.1315 166.784 25.956C166.784 25.7805 166.73 25.6455 166.629 25.5577C166.528 25.47 166.393 25.4295 166.224 25.4295H165.413V27.8597H165.055L165.048 27.8664ZM166.595 26.6176L167.271 27.8664H166.872L166.21 26.6176H166.602H166.595Z" fill="white"></path></g><defs><linearGradient id="paint0_linear_412_113" x1="43.0758" y1="68.0863" x2="12.8567" y2="14.5243" gradientUnits="userSpaceOnUse"><stop stop-color="#6600AE"></stop><stop offset="1" stop-color="#9400FF"></stop></linearGradient><clipPath id="clip0_412_113"><rect width="169" height="59" fill="white"></rect></clipPath></defs></svg>